<svg xmlns="http://www.w3.org/2000/svg" viewBox="0 0 158 101" width="158" height="101">
	<defs>
		<linearGradient id="grd1" gradientUnits="userSpaceOnUse"  x1="5435.674" y1="1426.882" x2="8706.906" y2="10099.65">
			<stop offset="0" stop-color="#99100f"  />
			<stop offset="100" stop-color="#f11319"  />
		</linearGradient>
	</defs>
	<style>
		tspan { white-space:pre }
		.shp0 { fill: url(#grd1) } 
		.shp1 { fill: #ffffff } 
	</style>
	<g id="Artboard">
		<g id="or3d-logo-inverted">
			<path id="Path" class="shp0" d="M0 20.6C27.61 5.74 54.26 10.94 79.96 36.2C97.22 56.19 101.35 77.79 92.36 101C102.43 89.05 112.97 81.71 123.98 78.97C134.99 76.24 146.33 74.87 158 74.87C151.47 47.43 133.48 25.73 104.03 9.76C74.58 -6.2 39.91 -2.59 0 20.6Z" />
			<path id="Shape" fill-rule="evenodd" class="shp1" d="M50.37 52.24L50.37 52.76C50.37 52.97 50.36 53.22 50.34 53.51C50.32 53.8 50.29 54.11 50.25 54.45C50.21 54.78 50.15 55.12 50.08 55.47C49.99 55.89 49.86 56.42 49.67 57.06C49.48 57.7 49.19 58.38 48.8 59.11C48.41 59.83 47.89 60.57 47.26 61.32C46.63 62.07 45.83 62.77 44.86 63.41C44.41 63.7 43.87 64 43.24 64.3C42.61 64.61 41.87 64.89 41.04 65.14C40.21 65.39 39.27 65.6 38.22 65.76C37.18 65.92 36.02 66 34.76 66C32.86 66 31.18 65.83 29.7 65.48C28.23 65.13 26.95 64.68 25.85 64.13C24.76 63.58 23.84 62.96 23.09 62.28C22.34 61.6 21.74 60.92 21.28 60.25C21.06 59.94 20.82 59.54 20.56 59.06C20.29 58.59 20.04 58.02 19.81 57.37C19.59 56.71 19.39 55.98 19.24 55.17C19.08 54.35 19 53.46 19 52.49C19 51.03 19.16 49.73 19.48 48.61C19.8 47.48 20.2 46.5 20.67 45.66C21.14 44.82 21.65 44.11 22.21 43.54C22.76 42.96 23.27 42.5 23.74 42.14C24.45 41.61 25.2 41.16 26 40.78C26.8 40.4 27.63 40.09 28.48 39.84C29.33 39.59 30.2 39.4 31.09 39.26C31.98 39.13 32.85 39.05 33.71 39.01C34.5 38.99 35.33 39 36.2 39.05C37.06 39.1 37.92 39.19 38.78 39.34C39.63 39.48 40.47 39.67 41.29 39.92C42.11 40.16 42.88 40.46 43.59 40.81C43.8 40.92 44.07 41.07 44.42 41.26C44.76 41.45 45.16 41.71 45.62 42.03C45.98 42.31 46.34 42.6 46.69 42.92C47.04 43.24 47.36 43.58 47.65 43.94C47.93 44.25 48.22 44.66 48.54 45.17C48.85 45.68 49.14 46.28 49.42 46.97C49.69 47.67 49.91 48.45 50.09 49.33C50.28 50.2 50.37 51.17 50.37 52.24ZM43.85 52.52C43.85 52.25 43.83 51.88 43.79 51.43C43.76 50.97 43.66 50.47 43.51 49.91C43.36 49.35 43.13 48.77 42.82 48.15C42.52 47.53 42.1 46.93 41.56 46.34C41.12 45.85 40.62 45.43 40.06 45.08C39.51 44.72 38.92 44.43 38.31 44.2C37.69 43.98 37.05 43.81 36.39 43.7C35.72 43.59 35.06 43.55 34.39 43.58C34.25 43.59 34.05 43.61 33.8 43.63C33.54 43.65 33.25 43.69 32.93 43.75C32.6 43.8 32.25 43.88 31.87 43.99C31.49 44.1 31.1 44.23 30.7 44.4C29.91 44.75 29.24 45.16 28.68 45.62C28.12 46.09 27.65 46.58 27.27 47.1C26.89 47.61 26.58 48.14 26.36 48.68C26.14 49.22 25.97 49.74 25.85 50.23C25.74 50.73 25.67 51.19 25.64 51.61C25.61 52.03 25.59 52.38 25.59 52.67C25.59 52.79 25.6 52.98 25.61 53.23C25.62 53.49 25.65 53.79 25.69 54.12C25.73 54.46 25.8 54.81 25.9 55.19C26 55.57 26.12 55.95 26.28 56.33C26.38 56.57 26.49 56.82 26.62 57.08C26.76 57.34 26.97 57.66 27.26 58.06C27.35 58.17 27.51 58.36 27.74 58.65C27.96 58.94 28.24 59.22 28.56 59.5C28.82 59.71 29.13 59.93 29.5 60.16C29.88 60.39 30.32 60.6 30.83 60.79C31.33 60.98 31.91 61.14 32.55 61.26C33.19 61.38 33.9 61.44 34.68 61.44C34.83 61.44 35.03 61.43 35.28 61.42C35.53 61.41 35.82 61.38 36.15 61.35C36.48 61.31 36.83 61.25 37.21 61.17C37.59 61.08 37.98 60.97 38.38 60.83C39.22 60.53 39.94 60.15 40.53 59.69C41.12 59.24 41.62 58.75 42.03 58.22C42.43 57.69 42.75 57.15 43 56.59C43.24 56.04 43.42 55.5 43.55 54.99C43.67 54.47 43.76 54 43.79 53.57C43.83 53.13 43.85 52.79 43.85 52.52ZM75.43 65.17L68.62 54.97L61.3 54.97L61.3 65.17L54.93 65.17L54.93 39.8L72.53 39.8C73.09 39.8 73.57 39.81 73.98 39.83C74.39 39.85 74.76 39.87 75.09 39.91C75.41 39.95 75.71 39.99 75.97 40.05C76.24 40.11 76.5 40.19 76.77 40.27C77.59 40.51 78.32 40.86 78.95 41.32C79.59 41.78 80.12 42.32 80.56 42.94C80.99 43.55 81.32 44.24 81.54 45C81.77 45.75 81.88 46.55 81.88 47.39C81.88 47.71 81.84 48.17 81.78 48.76C81.71 49.35 81.51 50.01 81.19 50.73C80.9 51.37 80.55 51.92 80.13 52.35C79.71 52.79 79.25 53.15 78.74 53.44C78.24 53.73 77.68 53.96 77.09 54.13C76.49 54.31 75.86 54.45 75.21 54.57L83 65.17L75.43 65.17ZM75.39 47.46C75.39 47.4 75.39 47.3 75.38 47.16C75.38 47.02 75.36 46.86 75.32 46.68C75.29 46.5 75.23 46.32 75.17 46.12C75.1 45.92 75.01 45.73 74.89 45.55C74.69 45.24 74.46 45 74.19 44.83C73.92 44.67 73.63 44.54 73.32 44.45C73.01 44.36 72.69 44.3 72.36 44.29C72.03 44.27 71.7 44.26 71.37 44.26L61.3 44.26L61.3 50.48L72.15 50.48C72.32 50.48 72.5 50.47 72.68 50.45C72.86 50.43 73.02 50.4 73.15 50.37C73.34 50.32 73.56 50.24 73.82 50.13C74.07 50.01 74.32 49.84 74.55 49.62C74.79 49.4 74.99 49.11 75.15 48.76C75.31 48.41 75.39 47.97 75.39 47.46ZM116.49 56.02C116.49 56.75 116.38 57.41 116.18 57.99C115.97 58.57 115.72 59.07 115.42 59.49C115.13 59.91 114.83 60.26 114.53 60.55C114.23 60.83 113.98 61.05 113.79 61.2C113.12 61.74 112.37 62.19 111.55 62.55C110.74 62.91 109.89 63.2 109 63.41C108.12 63.63 107.23 63.78 106.32 63.87C105.42 63.96 104.53 64 103.67 64C102.3 64 101.05 63.89 99.92 63.68C98.79 63.46 97.79 63.19 96.91 62.85C96.02 62.51 95.27 62.13 94.63 61.71C94 61.3 93.5 60.89 93.13 60.48C92.71 60.02 92.37 59.53 92.11 59.03C91.85 58.52 91.65 58.04 91.49 57.58C91.34 57.12 91.23 56.7 91.16 56.33C91.09 55.96 91.04 55.68 91 55.49L97.62 55.15C97.62 55.22 97.65 55.42 97.71 55.74C97.76 56.05 97.85 56.36 97.96 56.66C98.13 57.08 98.35 57.45 98.64 57.77C98.92 58.09 99.29 58.36 99.75 58.57C100.21 58.79 100.75 58.95 101.4 59.06C102.04 59.18 102.78 59.23 103.63 59.23C104 59.23 104.41 59.21 104.88 59.17C105.34 59.12 105.81 59.05 106.28 58.95C106.76 58.85 107.21 58.72 107.64 58.56C108.08 58.41 108.44 58.21 108.73 57.99C108.98 57.8 109.18 57.59 109.33 57.37C109.47 57.15 109.59 56.94 109.67 56.73C109.75 56.52 109.81 56.33 109.83 56.15C109.86 55.97 109.87 55.83 109.87 55.72C109.87 55.24 109.76 54.8 109.55 54.41C109.33 54.02 109.02 53.71 108.61 53.48C108.27 53.28 107.82 53.13 107.27 53.04C106.72 52.95 106.08 52.89 105.36 52.86C104.64 52.84 103.84 52.83 102.97 52.85C102.11 52.87 101.18 52.89 100.21 52.92L100.21 48.79C101.09 48.81 101.91 48.82 102.66 48.82C103.41 48.83 104.09 48.82 104.71 48.79C105.34 48.75 105.89 48.7 106.37 48.62C106.85 48.55 107.27 48.43 107.63 48.26C107.99 48.1 108.28 47.91 108.49 47.69C108.7 47.47 108.86 47.24 108.96 47.02C109.06 46.79 109.12 46.57 109.15 46.35C109.17 46.14 109.18 45.96 109.18 45.81C109.18 44.86 108.75 44.13 107.89 43.62C107.03 43.11 105.75 42.86 104.05 42.86C103.69 42.86 103.29 42.87 102.84 42.9C102.39 42.93 101.95 43 101.51 43.09C101.07 43.19 100.65 43.32 100.25 43.49C99.85 43.66 99.52 43.89 99.26 44.18C98.94 44.52 98.72 44.86 98.61 45.21C98.49 45.56 98.42 45.81 98.38 45.96L91.8 45.69L91.91 45.13C91.95 44.94 92 44.75 92.07 44.56C92.18 44.15 92.31 43.79 92.46 43.47C92.62 43.15 92.77 42.86 92.93 42.6C93.09 42.34 93.24 42.12 93.4 41.94C93.55 41.76 93.68 41.61 93.78 41.49C94.41 40.79 95.13 40.22 95.95 39.8C96.76 39.38 97.61 39.05 98.5 38.83C99.4 38.6 100.31 38.45 101.24 38.38C102.18 38.31 103.09 38.28 103.97 38.28C105.14 38.28 106.2 38.33 107.16 38.42C108.12 38.52 108.98 38.65 109.74 38.82C110.5 38.99 111.17 39.19 111.76 39.42C112.35 39.66 112.86 39.92 113.29 40.21C113.89 40.6 114.36 41.01 114.71 41.45C115.06 41.88 115.32 42.31 115.5 42.73C115.68 43.16 115.79 43.56 115.84 43.93C115.89 44.31 115.92 44.65 115.92 44.94C115.92 46.12 115.65 47.12 115.11 47.92C114.57 48.73 113.78 49.37 112.72 49.85C112.47 49.98 112.23 50.08 111.99 50.16C111.76 50.23 111.52 50.3 111.29 50.35C111.05 50.41 110.81 50.46 110.57 50.51C110.33 50.55 110.07 50.6 109.79 50.65C110.2 50.69 110.55 50.72 110.85 50.76C111.15 50.8 111.41 50.84 111.65 50.87C111.88 50.91 112.1 50.96 112.29 51.01C112.48 51.06 112.67 51.11 112.88 51.18C113.97 51.54 114.84 52.15 115.5 52.98C116.16 53.82 116.49 54.83 116.49 56.02ZM149 50.61C149 51.92 148.88 53.08 148.63 54.09C148.38 55.11 148.07 56 147.7 56.78C147.32 57.55 146.91 58.21 146.47 58.76C146.03 59.3 145.62 59.76 145.23 60.12C145.05 60.29 144.82 60.49 144.53 60.72C144.25 60.96 143.91 61.2 143.52 61.45C143.13 61.7 142.68 61.95 142.17 62.19C141.66 62.43 141.09 62.64 140.45 62.82C140.05 62.94 139.66 63.04 139.26 63.12C138.87 63.2 138.44 63.26 137.97 63.31C137.5 63.35 136.96 63.39 136.36 63.41C135.75 63.42 135.04 63.43 134.22 63.43L121.03 63.43L121.03 38L135.05 38C135.85 38 136.62 38.02 137.36 38.07C138.1 38.12 138.83 38.22 139.53 38.36C140.24 38.5 140.94 38.71 141.63 38.97C142.32 39.24 143.01 39.59 143.71 40.02C143.92 40.15 144.21 40.34 144.58 40.6C144.95 40.86 145.35 41.21 145.78 41.64C146.34 42.23 146.83 42.87 147.24 43.57C147.65 44.28 147.99 45.02 148.25 45.79C148.51 46.56 148.7 47.36 148.82 48.18C148.94 48.99 149 49.8 149 50.61ZM142.62 50.43C142.62 50.33 142.62 50.15 142.61 49.88C142.61 49.61 142.58 49.29 142.54 48.92C142.5 48.56 142.43 48.16 142.34 47.72C142.25 47.28 142.12 46.83 141.94 46.38C141.77 45.93 141.55 45.5 141.27 45.08C141 44.66 140.67 44.28 140.27 43.94C140.14 43.84 139.92 43.69 139.63 43.5C139.33 43.32 138.96 43.14 138.53 42.97C138.3 42.89 138.07 42.82 137.83 42.76C137.6 42.7 137.34 42.65 137.05 42.61C136.77 42.57 136.45 42.55 136.08 42.53C135.72 42.51 135.29 42.5 134.8 42.5L127.41 42.5L127.41 58.93L135.05 58.93C135.33 58.93 135.65 58.92 136.03 58.89C136.4 58.87 136.8 58.82 137.23 58.75C137.66 58.68 138.07 58.57 138.46 58.43C139.02 58.22 139.56 57.93 140.06 57.54C140.56 57.16 141 56.65 141.38 56.01C141.76 55.38 142.06 54.6 142.29 53.68C142.51 52.76 142.62 51.68 142.62 50.43Z" />
		</g>
	</g>
</svg>